<?xml version="1.0" standalone="no"?>
<!DOCTYPE svg PUBLIC "-//W3C//DTD SVG 20010904//EN"
 "http://www.w3.org/TR/2001/REC-SVG-20010904/DTD/svg10.dtd">
<svg version="1.0" xmlns="http://www.w3.org/2000/svg"
 width="225.000000pt" height="225.000000pt" viewBox="0 0 225.000000 225.000000"
 preserveAspectRatio="xMidYMid meet">
<metadata>
Created by potrace 1.11, written by Peter Selinger 2001-2013
</metadata>
<g transform="translate(0.000000,225.000000) scale(0.100000,-0.100000)"
fill="#000000" stroke="none">
<path d="M1248 2123 c6 -2 18 -2 25 0 6 3 1 5 -13 5 -14 0 -19 -2 -12 -5z"/>
<path d="M1358 2093 c7 -3 16 -2 19 1 4 3 -2 6 -13 5 -11 0 -14 -3 -6 -6z"/>
<path d="M755 2080 c-13 -6 -15 -9 -5 -9 8 0 22 4 30 9 18 12 2 12 -25 0z"/>
<path d="M875 2083 c-11 -3 -24 -9 -29 -14 -5 -5 5 -4 24 1 51 15 55 25 5 13z"/>
<path d="M710 2050 c-21 -7 -21 -8 -5 -9 11 0 27 4 35 9 18 11 5 11 -30 0z"/>
<path d="M610 2020 c-13 -9 -13 -10 0 -10 8 0 22 5 30 10 13 9 13 10 0 10 -8
0 -22 -5 -30 -10z"/>
<path d="M668 2023 c7 -3 16 -2 19 1 4 3 -2 6 -13 5 -11 0 -14 -3 -6 -6z"/>
<path d="M709 2017 c5 -5 19 -7 32 -5 20 3 19 5 -9 9 -20 3 -29 2 -23 -4z"/>
<path d="M878 2018 c5 -5 16 -8 23 -6 8 3 3 7 -10 11 -17 4 -21 3 -13 -5z"/>
<path d="M938 2013 c7 -3 16 -2 19 1 4 3 -2 6 -13 5 -11 0 -14 -3 -6 -6z"/>
<path d="M650 2006 c0 -2 7 -7 16 -10 8 -3 12 -2 9 4 -6 10 -25 14 -25 6z"/>
<path d="M577 1983 c-21 -7 -45 -20 -53 -28 -20 -20 -16 -19 31 5 22 11 47 20
57 20 9 0 19 4 22 8 7 12 -12 10 -57 -5z"/>
<path d="M698 1983 c7 -3 16 -2 19 1 4 3 -2 6 -13 5 -11 0 -14 -3 -6 -6z"/>
<path d="M650 1955 c-14 -8 -20 -14 -14 -15 5 0 19 7 30 15 24 18 16 19 -16 0z"/>
<path d="M773 1963 c9 -2 23 -2 30 0 6 3 -1 5 -18 5 -16 0 -22 -2 -12 -5z"/>
<path d="M600 1930 c-9 -6 -10 -10 -3 -10 6 0 15 5 18 10 8 12 4 12 -15 0z"/>
<path d="M738 1913 c6 -2 18 -2 25 0 6 3 1 5 -13 5 -14 0 -19 -2 -12 -5z"/>
<path d="M475 1875 c-40 -19 -16 -19 26 0 19 8 27 14 19 14 -8 0 -28 -7 -45
-14z"/>
<path d="M1200 1880 c-18 -12 -2 -12 25 0 13 6 15 9 5 9 -8 0 -22 -4 -30 -9z"/>
<path d="M708 1853 c7 -3 16 -2 19 1 4 3 -2 6 -13 5 -11 0 -14 -3 -6 -6z"/>
<path d="M760 1823 c8 -3 23 -12 32 -20 9 -8 23 -13 30 -10 9 4 8 6 -3 6 -9 1
-22 8 -29 16 -7 8 -20 15 -29 14 -13 0 -14 -1 -1 -6z"/>
<path d="M1812 1812 c17 -13 22 -13 34 0 12 12 10 14 -20 14 -33 0 -34 -1 -14
-14z"/>
<path d="M634 1806 c-10 -8 -17 -16 -14 -19 3 -2 14 4 24 14 23 22 18 25 -10
5z"/>
<path d="M705 1810 c3 -5 11 -10 16 -10 6 0 7 5 4 10 -3 6 -11 10 -16 10 -6 0
-7 -4 -4 -10z"/>
<path d="M1308 1793 c7 -3 16 -2 19 1 4 3 -2 6 -13 5 -11 0 -14 -3 -6 -6z"/>
<path d="M1676 1783 c-6 -14 -5 -15 5 -6 7 7 10 15 7 18 -3 3 -9 -2 -12 -12z"/>
<path d="M1669 1723 c-12 -16 -12 -17 2 -5 9 7 25 9 34 5 13 -4 16 -3 11 5
-10 17 -31 15 -47 -5z"/>
<path d="M1570 1710 c-13 -8 -12 -10 3 -10 9 0 17 5 17 10 0 12 -1 12 -20 0z"/>
<path d="M1660 1679 c0 -5 5 -7 10 -4 6 3 10 8 10 11 0 2 -4 4 -10 4 -5 0 -10
-5 -10 -11z"/>
<path d="M242 1600 c-13 -28 -35 -94 -50 -148 -22 -84 -26 -116 -25 -242 0
-173 25 -284 93 -421 79 -157 192 -286 340 -389 58 -41 65 -49 62 -76 -10
-102 234 -161 560 -136 102 8 172 18 210 32 32 11 62 20 68 20 21 0 70 55 72
81 2 20 20 38 82 80 44 29 107 81 140 114 65 64 141 155 117 141 -11 -7 -13
-3 -7 20 4 16 7 37 7 46 0 10 8 23 18 30 10 7 23 22 29 33 24 42 13 -14 -13
-68 -14 -29 -19 -43 -10 -32 19 23 80 149 102 209 24 68 53 225 53 287 0 53
-2 59 -20 59 -17 0 -19 -3 -10 -19 19 -36 -8 -72 -82 -111 -21 -11 -39 -20
-41 -20 -2 0 -10 19 -17 43 -7 23 -21 54 -31 68 -10 15 -23 38 -29 53 -5 14
-14 26 -19 26 -5 0 0 -17 10 -37 10 -21 19 -42 19 -48 0 -20 38 -90 59 -109
14 -13 28 -16 46 -12 20 5 25 3 25 -13 0 -34 -17 -64 -64 -114 -45 -49 -45
-49 -45 -119 1 -65 -1 -72 -30 -102 -17 -18 -31 -41 -31 -53 0 -11 -7 -26 -15
-33 -8 -7 -15 -18 -15 -24 0 -24 -61 -86 -85 -86 -13 0 -27 -5 -30 -10 -7 -11
-46 5 -43 18 2 7 -16 97 -34 170 -8 32 -8 46 1 55 17 17 13 79 -8 114 -11 17
-21 49 -23 70 -2 21 -7 36 -12 35 -5 -2 -13 4 -18 13 -6 9 -17 14 -26 11 -9
-3 -41 -8 -70 -11 -63 -6 -92 9 -128 67 -21 33 -23 45 -18 95 l7 58 -55 -57
-55 -58 -114 0 c-131 0 -226 24 -276 69 -19 17 -37 19 -65 7 -24 -11 -54 -2
-50 15 2 8 0 11 -3 7 -4 -4 -22 0 -39 9 -17 9 -42 19 -56 23 -22 7 -23 8 -6
15 12 5 34 0 62 -14 52 -25 65 -26 58 -7 -3 9 -12 12 -22 9 -11 -5 -14 -2 -9
10 3 9 3 17 -2 17 -5 0 -8 12 -8 28 0 15 2 21 4 15 8 -24 25 -13 23 15 -1 15
-1 30 0 35 1 4 4 12 5 17 1 6 3 11 4 13 9 10 9 47 1 42 -5 -3 -10 -12 -10 -19
0 -7 -14 -23 -31 -35 -27 -20 -30 -28 -27 -62 3 -30 0 -39 -12 -39 -9 0 -21
13 -27 30 -11 29 -13 30 -60 24 -63 -9 -83 -27 -83 -76 0 -43 21 -60 49 -40
27 20 40 24 57 18 14 -5 14 -8 0 -28 -22 -31 -20 -38 9 -38 23 0 25 -4 23 -35
-1 -19 1 -38 5 -42 16 -16 49 -12 78 9 18 14 33 19 37 13 7 -11 10 -11 73 -13
31 -2 42 -7 46 -21 3 -10 27 -31 54 -46 38 -20 49 -32 49 -51 0 -19 6 -26 30
-30 16 -4 30 -10 30 -15 0 -5 14 -9 30 -9 17 0 33 -6 36 -14 3 -8 14 -16 25
-19 25 -7 25 -47 0 -79 -11 -13 -22 -44 -26 -68 -8 -54 -20 -72 -62 -94 -22
-11 -33 -24 -33 -39 0 -29 -63 -103 -80 -92 -9 5 -10 2 -5 -14 5 -16 1 -23
-19 -31 -14 -5 -26 -14 -26 -20 0 -5 -8 -10 -17 -10 -15 0 -16 -2 -3 -10 12
-7 11 -12 -5 -30 -14 -15 -16 -23 -8 -28 8 -5 9 -13 3 -22 -16 -25 -11 -38 18
-48 15 -6 22 -11 15 -11 -26 -2 -94 43 -109 70 -11 22 -12 29 -2 29 9 0 9 3 2
8 -10 7 -11 28 -3 218 l4 92 -47 50 c-27 28 -48 58 -48 67 0 9 -5 26 -12 38
-21 38 -20 96 2 119 29 31 25 45 -20 68 -21 11 -44 29 -49 39 -11 20 -70 54
-112 64 -41 10 -76 44 -83 80 -4 19 -16 43 -28 53 -21 19 -21 19 -9 -4 7 -13
10 -28 8 -35 -3 -7 -10 3 -17 21 -7 17 -15 32 -20 32 -4 0 -10 18 -14 40 -3
22 -10 40 -15 40 -19 0 -33 73 -21 106 8 21 23 164 17 164 -1 0 -13 -23 -25
-50z m433 -420 c3 -5 -1 -10 -9 -10 -8 0 -18 5 -21 10 -3 6 1 10 9 10 8 0 18
-4 21 -10z m525 -835 c0 -25 -10 -29 -75 -27 -69 1 -85 7 -85 30 0 21 4 22 80
22 79 0 80 0 80 -25z"/>
<path d="M882 1604 c-12 -8 -27 -12 -34 -8 -7 4 -8 3 -4 -4 10 -16 17 -15 46
8 30 23 24 27 -8 4z"/>
<path d="M1398 1613 c6 -2 18 -2 25 0 6 3 1 5 -13 5 -14 0 -19 -2 -12 -5z"/>
<path d="M1446 1591 c-3 -4 6 -6 19 -3 14 2 25 6 25 8 0 8 -39 4 -44 -5z"/>
<path d="M600 1570 c20 -13 33 -13 25 0 -3 6 -14 10 -23 10 -15 0 -15 -2 -2
-10z"/>
<path d="M858 1541 c10 -6 5 -11 -17 -20 -16 -7 -34 -11 -38 -8 -5 3 -15 2
-23 -4 -26 -16 38 -10 71 6 28 15 32 35 6 35 -8 0 -8 -3 1 -9z"/>
<path d="M1783 1502 c-6 -11 -8 -23 -5 -28 9 -12 112 -15 112 -4 0 13 -34 30
-59 30 -12 0 -21 5 -21 10 0 16 -14 12 -27 -8z"/>
<path d="M1961 1511 c-11 -7 -10 -14 3 -43 10 -20 16 -39 15 -44 -4 -22 2 -34
16 -34 18 0 12 41 -13 79 -11 18 -12 26 -4 29 13 4 16 22 5 22 -5 0 -14 -4
-22 -9z"/>
<path d="M1630 1502 c0 -10 33 -42 43 -42 14 0 5 16 -18 33 -14 10 -25 14 -25
9z"/>
<path d="M1556 1493 c-10 -3 -28 -14 -39 -24 -17 -16 -18 -19 -5 -19 9 0 23 7
31 15 8 8 17 11 20 8 13 -12 -56 -54 -108 -66 -19 -4 -19 -5 1 -6 12 0 37 5
55 13 19 7 48 12 64 9 17 -2 40 -1 51 4 21 8 21 9 -8 37 l-30 30 7 -32 c6 -28
4 -32 -15 -32 -12 0 -18 4 -15 11 6 8 16 62 11 58 0 -1 -10 -4 -20 -6z"/>
<path d="M736 1465 c-19 -15 -19 -15 1 -15 11 0 23 7 27 15 7 19 -3 19 -28 0z"/>
<path d="M1745 1442 c-20 -14 -15 -50 8 -57 18 -6 19 -8 5 -12 -17 -4 -58 29
-58 46 0 21 -22 22 -37 2 -9 -14 -21 -20 -32 -16 -11 3 -17 -1 -18 -14 -2 -19
41 -46 58 -36 5 3 6 -1 3 -9 -8 -21 5 -21 20 0 10 14 14 14 41 0 17 -9 47 -16
68 -16 30 0 37 4 37 20 0 11 -5 20 -11 20 -5 0 -7 5 -4 10 4 6 -6 10 -24 10
-31 0 -58 30 -46 50 7 12 4 13 -10 2z"/>
<path d="M1398 1398 c5 -5 16 -8 23 -6 8 3 3 7 -10 11 -17 4 -21 3 -13 -5z"/>
<path d="M1981 1288 c-2 -33 49 -63 64 -38 3 6 -3 10 -13 10 -11 0 -27 10 -35
23 -13 18 -16 19 -16 5z"/>
</g>
</svg>
